<svg xmlns="http://www.w3.org/2000/svg" xmlns:xlink="http://www.w3.org/1999/xlink" width="500" zoomAndPan="magnify" viewBox="0 0 375 374.999991" height="500" preserveAspectRatio="xMidYMid meet" version="1.0"><defs><g/><clipPath id="279c1a03e4"><rect x="0" width="302" y="0" height="184"/></clipPath></defs><rect x="-37.5" width="450" fill="#ffffff" y="-37.499999" height="449.999989" fill-opacity="1"/><rect x="-37.5" width="450" fill="#000000" y="-37.499999" height="449.999989" fill-opacity="1"/><g transform="matrix(1, 0, 0, 1, 39, 94)"><g clip-path="url(#279c1a03e4)"><g fill="#ffffff" fill-opacity="1"><g transform="translate(0.762211, 85.785651)"><g><path d="M 28.078125 -44.890625 C 31.398438 -44.890625 34.398438 -44.175781 37.078125 -42.75 C 39.765625 -41.332031 41.867188 -39.203125 43.390625 -36.359375 C 44.921875 -33.515625 45.6875 -30.054688 45.6875 -25.984375 L 45.6875 0 L 38.453125 0 L 38.453125 -24.9375 C 38.453125 -29.332031 37.351562 -32.695312 35.15625 -35.03125 C 32.957031 -37.363281 29.953125 -38.53125 26.140625 -38.53125 C 22.273438 -38.53125 19.203125 -37.320312 16.921875 -34.90625 C 14.648438 -32.5 13.515625 -28.988281 13.515625 -24.375 L 13.515625 0 L 6.1875 0 L 6.1875 -59.53125 L 13.515625 -59.53125 L 13.515625 -37.8125 C 14.960938 -40.0625 16.957031 -41.800781 19.5 -43.03125 C 22.050781 -44.269531 24.910156 -44.890625 28.078125 -44.890625 Z M 28.078125 -44.890625 "/></g></g></g><g fill="#ffffff" fill-opacity="1"><g transform="translate(43.047512, 85.785651)"><g><path d="M 9.96875 -51.234375 C 8.582031 -51.234375 7.40625 -51.71875 6.4375 -52.6875 C 5.46875 -53.65625 4.984375 -54.832031 4.984375 -56.21875 C 4.984375 -57.613281 5.46875 -58.796875 6.4375 -59.765625 C 7.40625 -60.734375 8.582031 -61.21875 9.96875 -61.21875 C 11.3125 -61.21875 12.453125 -60.734375 13.390625 -59.765625 C 14.328125 -58.796875 14.796875 -57.613281 14.796875 -56.21875 C 14.796875 -54.832031 14.328125 -53.65625 13.390625 -52.6875 C 12.453125 -51.71875 11.3125 -51.234375 9.96875 -51.234375 Z M 13.515625 -44.078125 L 13.515625 0 L 6.1875 0 L 6.1875 -44.078125 Z M 13.515625 -44.078125 "/></g></g></g><g fill="#ffffff" fill-opacity="1"><g transform="translate(53.655917, 85.785651)"><g><path d="M 59.203125 -44.890625 C 62.628906 -44.890625 65.679688 -44.175781 68.359375 -42.75 C 71.046875 -41.332031 73.164062 -39.203125 74.71875 -36.359375 C 76.28125 -33.515625 77.0625 -30.054688 77.0625 -25.984375 L 77.0625 0 L 69.8125 0 L 69.8125 -24.9375 C 69.8125 -29.332031 68.722656 -32.695312 66.546875 -35.03125 C 64.378906 -37.363281 61.445312 -38.53125 57.75 -38.53125 C 53.945312 -38.53125 50.914062 -37.304688 48.65625 -34.859375 C 46.40625 -32.421875 45.28125 -28.898438 45.28125 -24.296875 L 45.28125 0 L 38.046875 0 L 38.046875 -24.9375 C 38.046875 -29.332031 36.957031 -32.695312 34.78125 -35.03125 C 32.613281 -37.363281 29.679688 -38.53125 25.984375 -38.53125 C 22.171875 -38.53125 19.140625 -37.304688 16.890625 -34.859375 C 14.640625 -32.421875 13.515625 -28.898438 13.515625 -24.296875 L 13.515625 0 L 6.1875 0 L 6.1875 -44.078125 L 13.515625 -44.078125 L 13.515625 -37.71875 C 14.960938 -40.03125 16.90625 -41.800781 19.34375 -43.03125 C 21.78125 -44.269531 24.472656 -44.890625 27.421875 -44.890625 C 31.128906 -44.890625 34.398438 -44.054688 37.234375 -42.390625 C 40.078125 -40.722656 42.195312 -38.285156 43.59375 -35.078125 C 44.832031 -38.179688 46.867188 -40.59375 49.703125 -42.3125 C 52.546875 -44.03125 55.710938 -44.890625 59.203125 -44.890625 Z M 59.203125 -44.890625 "/></g></g></g><g fill="#ffffff" fill-opacity="1"><g transform="translate(127.296527, 85.785651)"><g><path d="M 3.453125 -22.203125 C 3.453125 -26.703125 4.363281 -30.65625 6.1875 -34.0625 C 8.007812 -37.46875 10.515625 -40.109375 13.703125 -41.984375 C 16.898438 -43.859375 20.457031 -44.796875 24.375 -44.796875 C 28.226562 -44.796875 31.578125 -43.960938 34.421875 -42.296875 C 37.265625 -40.640625 39.382812 -38.550781 40.78125 -36.03125 L 40.78125 -44.078125 L 48.1875 -44.078125 L 48.1875 0 L 40.78125 0 L 40.78125 -8.203125 C 39.332031 -5.628906 37.171875 -3.5 34.296875 -1.8125 C 31.429688 -0.125 28.097656 0.71875 24.296875 0.71875 C 20.378906 0.71875 16.835938 -0.242188 13.671875 -2.171875 C 10.503906 -4.097656 8.007812 -6.804688 6.1875 -10.296875 C 4.363281 -13.785156 3.453125 -17.753906 3.453125 -22.203125 Z M 40.78125 -22.125 C 40.78125 -25.445312 40.109375 -28.335938 38.765625 -30.796875 C 37.429688 -33.265625 35.625 -35.15625 33.34375 -36.46875 C 31.0625 -37.789062 28.554688 -38.453125 25.828125 -38.453125 C 23.085938 -38.453125 20.59375 -37.804688 18.34375 -36.515625 C 16.09375 -35.234375 14.296875 -33.359375 12.953125 -30.890625 C 11.609375 -28.421875 10.9375 -25.523438 10.9375 -22.203125 C 10.9375 -18.828125 11.609375 -15.890625 12.953125 -13.390625 C 14.296875 -10.898438 16.09375 -9 18.34375 -7.6875 C 20.59375 -6.375 23.085938 -5.71875 25.828125 -5.71875 C 28.554688 -5.71875 31.0625 -6.375 33.34375 -7.6875 C 35.625 -9 37.429688 -10.898438 38.765625 -13.390625 C 40.109375 -15.890625 40.78125 -18.800781 40.78125 -22.125 Z M 40.78125 -22.125 "/></g></g></g><g fill="#ffffff" fill-opacity="1"><g transform="translate(172.476159, 85.785651)"><g><path d="M 44.15625 -44.078125 L 17.609375 20.75 L 10.046875 20.75 L 18.734375 -0.484375 L 0.96875 -44.078125 L 9.09375 -44.078125 L 22.921875 -8.359375 L 36.59375 -44.078125 Z M 44.15625 -44.078125 "/></g></g></g><g fill="#ffffff" fill-opacity="1"><g transform="translate(208.570811, 85.785651)"><g><path d="M 3.453125 -22.203125 C 3.453125 -26.703125 4.363281 -30.65625 6.1875 -34.0625 C 8.007812 -37.46875 10.515625 -40.109375 13.703125 -41.984375 C 16.898438 -43.859375 20.457031 -44.796875 24.375 -44.796875 C 28.226562 -44.796875 31.578125 -43.960938 34.421875 -42.296875 C 37.265625 -40.640625 39.382812 -38.550781 40.78125 -36.03125 L 40.78125 -44.078125 L 48.1875 -44.078125 L 48.1875 0 L 40.78125 0 L 40.78125 -8.203125 C 39.332031 -5.628906 37.171875 -3.5 34.296875 -1.8125 C 31.429688 -0.125 28.097656 0.71875 24.296875 0.71875 C 20.378906 0.71875 16.835938 -0.242188 13.671875 -2.171875 C 10.503906 -4.097656 8.007812 -6.804688 6.1875 -10.296875 C 4.363281 -13.785156 3.453125 -17.753906 3.453125 -22.203125 Z M 40.78125 -22.125 C 40.78125 -25.445312 40.109375 -28.335938 38.765625 -30.796875 C 37.429688 -33.265625 35.625 -35.15625 33.34375 -36.46875 C 31.0625 -37.789062 28.554688 -38.453125 25.828125 -38.453125 C 23.085938 -38.453125 20.59375 -37.804688 18.34375 -36.515625 C 16.09375 -35.234375 14.296875 -33.359375 12.953125 -30.890625 C 11.609375 -28.421875 10.9375 -25.523438 10.9375 -22.203125 C 10.9375 -18.828125 11.609375 -15.890625 12.953125 -13.390625 C 14.296875 -10.898438 16.09375 -9 18.34375 -7.6875 C 20.59375 -6.375 23.085938 -5.71875 25.828125 -5.71875 C 28.554688 -5.71875 31.0625 -6.375 33.34375 -7.6875 C 35.625 -9 37.429688 -10.898438 38.765625 -13.390625 C 40.109375 -15.890625 40.78125 -18.800781 40.78125 -22.125 Z M 40.78125 -22.125 "/></g></g></g><g fill="#ffffff" fill-opacity="1"><g transform="translate(253.750442, 85.785651)"><g><path d="M 28.078125 -44.890625 C 31.398438 -44.890625 34.398438 -44.175781 37.078125 -42.75 C 39.765625 -41.332031 41.867188 -39.203125 43.390625 -36.359375 C 44.921875 -33.515625 45.6875 -30.054688 45.6875 -25.984375 L 45.6875 0 L 38.453125 0 L 38.453125 -24.9375 C 38.453125 -29.332031 37.351562 -32.695312 35.15625 -35.03125 C 32.957031 -37.363281 29.953125 -38.53125 26.140625 -38.53125 C 22.273438 -38.53125 19.203125 -37.320312 16.921875 -34.90625 C 14.648438 -32.5 13.515625 -28.988281 13.515625 -24.375 L 13.515625 0 L 6.1875 0 L 6.1875 -59.53125 L 13.515625 -59.53125 L 13.515625 -37.8125 C 14.960938 -40.0625 16.957031 -41.800781 19.5 -43.03125 C 22.050781 -44.269531 24.910156 -44.890625 28.078125 -44.890625 Z M 28.078125 -44.890625 "/></g></g></g><g fill="#ffffff" fill-opacity="1"><g transform="translate(0.762211, 155.214775)"><g><path d="M 21.15625 0.640625 C 16.269531 0.640625 12.285156 -0.429688 9.203125 -2.578125 C 6.117188 -4.722656 4.390625 -7.78125 4.015625 -11.75 L 7.71875 -11.75 C 7.988281 -8.90625 9.289062 -6.648438 11.625 -4.984375 C 13.957031 -3.328125 17.132812 -2.5 21.15625 -2.5 C 24.476562 -2.5 27.117188 -3.34375 29.078125 -5.03125 C 31.035156 -6.71875 32.015625 -8.796875 32.015625 -11.265625 C 32.015625 -12.972656 31.488281 -14.378906 30.4375 -15.484375 C 29.394531 -16.585938 28.097656 -17.429688 26.546875 -18.015625 C 24.992188 -18.609375 22.875 -19.253906 20.1875 -19.953125 C 16.96875 -20.804688 14.363281 -21.648438 12.375 -22.484375 C 10.394531 -23.316406 8.707031 -24.5625 7.3125 -26.21875 C 5.925781 -27.882812 5.234375 -30.113281 5.234375 -32.90625 C 5.234375 -34.9375 5.847656 -36.820312 7.078125 -38.5625 C 8.304688 -40.3125 10.019531 -41.691406 12.21875 -42.703125 C 14.425781 -43.722656 16.921875 -44.234375 19.703125 -44.234375 C 24.265625 -44.234375 27.953125 -43.09375 30.765625 -40.8125 C 33.578125 -38.539062 35.09375 -35.394531 35.3125 -31.375 L 31.6875 -31.375 C 31.53125 -34.269531 30.40625 -36.628906 28.3125 -38.453125 C 26.21875 -40.273438 23.320312 -41.1875 19.625 -41.1875 C 16.519531 -41.1875 13.945312 -40.378906 11.90625 -38.765625 C 9.863281 -37.160156 8.84375 -35.207031 8.84375 -32.90625 C 8.84375 -30.863281 9.421875 -29.210938 10.578125 -27.953125 C 11.734375 -26.691406 13.15625 -25.722656 14.84375 -25.046875 C 16.53125 -24.378906 18.769531 -23.671875 21.5625 -22.921875 C 24.613281 -22.117188 27.0625 -21.328125 28.90625 -20.546875 C 30.757812 -19.773438 32.328125 -18.648438 33.609375 -17.171875 C 34.898438 -15.703125 35.546875 -13.734375 35.546875 -11.265625 C 35.546875 -9.015625 34.929688 -6.972656 33.703125 -5.140625 C 32.472656 -3.316406 30.753906 -1.894531 28.546875 -0.875 C 26.347656 0.132812 23.882812 0.640625 21.15625 0.640625 Z M 21.15625 0.640625 "/></g></g></g><g fill="#ffffff" fill-opacity="1"><g transform="translate(31.550582, 155.214775)"><g><path d="M 25.828125 0.640625 C 21.742188 0.640625 18.066406 -0.269531 14.796875 -2.09375 C 11.523438 -3.914062 8.960938 -6.53125 7.109375 -9.9375 C 5.265625 -13.34375 4.34375 -17.320312 4.34375 -21.875 C 4.34375 -26.382812 5.28125 -30.335938 7.15625 -33.734375 C 9.03125 -37.140625 11.617188 -39.738281 14.921875 -41.53125 C 18.222656 -43.332031 21.910156 -44.234375 25.984375 -44.234375 C 30.054688 -44.234375 33.726562 -43.332031 37 -41.53125 C 40.269531 -39.738281 42.828125 -37.15625 44.671875 -33.78125 C 46.523438 -30.40625 47.453125 -26.4375 47.453125 -21.875 C 47.453125 -17.320312 46.515625 -13.34375 44.640625 -9.9375 C 42.765625 -6.53125 40.175781 -3.914062 36.875 -2.09375 C 33.582031 -0.269531 29.898438 0.640625 25.828125 0.640625 Z M 25.828125 -2.578125 C 28.984375 -2.578125 31.941406 -3.285156 34.703125 -4.703125 C 37.460938 -6.128906 39.675781 -8.289062 41.34375 -11.1875 C 43.007812 -14.082031 43.84375 -17.644531 43.84375 -21.875 C 43.84375 -26.0625 43.007812 -29.601562 41.34375 -32.5 C 39.675781 -35.394531 37.472656 -37.550781 34.734375 -38.96875 C 32.003906 -40.394531 29.0625 -41.109375 25.90625 -41.109375 C 22.738281 -41.109375 19.800781 -40.394531 17.09375 -38.96875 C 14.382812 -37.550781 12.195312 -35.394531 10.53125 -32.5 C 8.875 -29.601562 8.046875 -26.0625 8.046875 -21.875 C 8.046875 -17.644531 8.863281 -14.082031 10.5 -11.1875 C 12.132812 -8.289062 14.304688 -6.128906 17.015625 -4.703125 C 19.722656 -3.285156 22.660156 -2.578125 25.828125 -2.578125 Z M 25.828125 -2.578125 "/></g></g></g><g fill="#ffffff" fill-opacity="1"><g transform="translate(74.237868, 155.214775)"><g><path d="M 10.21875 -59.53125 L 10.21875 0 L 6.59375 0 L 6.59375 -59.53125 Z M 10.21875 -59.53125 "/></g></g></g><g fill="#ffffff" fill-opacity="1"><g transform="translate(81.95194, 155.214775)"><g><path d="M 43.515625 -43.671875 L 43.515625 0 L 39.890625 0 L 39.890625 -9.484375 C 38.660156 -6.160156 36.609375 -3.628906 33.734375 -1.890625 C 30.867188 -0.148438 27.585938 0.71875 23.890625 0.71875 C 18.691406 0.71875 14.441406 -0.875 11.140625 -4.0625 C 7.835938 -7.25 6.1875 -11.984375 6.1875 -18.265625 L 6.1875 -43.671875 L 9.734375 -43.671875 L 9.734375 -18.5 C 9.734375 -13.300781 11.046875 -9.316406 13.671875 -6.546875 C 16.296875 -3.785156 19.863281 -2.40625 24.375 -2.40625 C 29.09375 -2.40625 32.859375 -3.90625 35.671875 -6.90625 C 38.484375 -9.914062 39.890625 -14.367188 39.890625 -20.265625 L 39.890625 -43.671875 Z M 43.515625 -43.671875 "/></g></g></g><g fill="#ffffff" fill-opacity="1"><g transform="translate(122.870453, 155.214775)"><g><path d="M 11.984375 -40.546875 L 11.984375 -11.65625 C 11.984375 -8.445312 12.570312 -6.238281 13.75 -5.03125 C 14.9375 -3.820312 17.03125 -3.21875 20.03125 -3.21875 L 24.9375 -3.21875 L 24.9375 0 L 19.46875 0 C 15.65625 0 12.847656 -0.894531 11.046875 -2.6875 C 9.253906 -4.488281 8.359375 -7.476562 8.359375 -11.65625 L 8.359375 -40.546875 L 1.765625 -40.546875 L 1.765625 -43.671875 L 8.359375 -43.671875 L 8.359375 -54.78125 L 11.984375 -54.78125 L 11.984375 -43.671875 L 24.9375 -43.671875 L 24.9375 -40.546875 Z M 11.984375 -40.546875 "/></g></g></g><g fill="#ffffff" fill-opacity="1"><g transform="translate(141.599074, 155.214775)"><g><path d="M 8.453125 -53.40625 C 7.585938 -53.40625 6.859375 -53.6875 6.265625 -54.25 C 5.679688 -54.8125 5.390625 -55.578125 5.390625 -56.546875 C 5.390625 -57.460938 5.679688 -58.210938 6.265625 -58.796875 C 6.859375 -59.390625 7.585938 -59.6875 8.453125 -59.6875 C 9.304688 -59.6875 10.023438 -59.390625 10.609375 -58.796875 C 11.203125 -58.210938 11.5 -57.460938 11.5 -56.546875 C 11.5 -55.578125 11.203125 -54.8125 10.609375 -54.25 C 10.023438 -53.6875 9.304688 -53.40625 8.453125 -53.40625 Z M 10.21875 -43.671875 L 10.21875 0 L 6.59375 0 L 6.59375 -43.671875 Z M 10.21875 -43.671875 "/></g></g></g><g fill="#ffffff" fill-opacity="1"><g transform="translate(149.313146, 155.214775)"><g><path d="M 25.828125 0.640625 C 21.742188 0.640625 18.066406 -0.269531 14.796875 -2.09375 C 11.523438 -3.914062 8.960938 -6.53125 7.109375 -9.9375 C 5.265625 -13.34375 4.34375 -17.320312 4.34375 -21.875 C 4.34375 -26.382812 5.28125 -30.335938 7.15625 -33.734375 C 9.03125 -37.140625 11.617188 -39.738281 14.921875 -41.53125 C 18.222656 -43.332031 21.910156 -44.234375 25.984375 -44.234375 C 30.054688 -44.234375 33.726562 -43.332031 37 -41.53125 C 40.269531 -39.738281 42.828125 -37.15625 44.671875 -33.78125 C 46.523438 -30.40625 47.453125 -26.4375 47.453125 -21.875 C 47.453125 -17.320312 46.515625 -13.34375 44.640625 -9.9375 C 42.765625 -6.53125 40.175781 -3.914062 36.875 -2.09375 C 33.582031 -0.269531 29.898438 0.640625 25.828125 0.640625 Z M 25.828125 -2.578125 C 28.984375 -2.578125 31.941406 -3.285156 34.703125 -4.703125 C 37.460938 -6.128906 39.675781 -8.289062 41.34375 -11.1875 C 43.007812 -14.082031 43.84375 -17.644531 43.84375 -21.875 C 43.84375 -26.0625 43.007812 -29.601562 41.34375 -32.5 C 39.675781 -35.394531 37.472656 -37.550781 34.734375 -38.96875 C 32.003906 -40.394531 29.0625 -41.109375 25.90625 -41.109375 C 22.738281 -41.109375 19.800781 -40.394531 17.09375 -38.96875 C 14.382812 -37.550781 12.195312 -35.394531 10.53125 -32.5 C 8.875 -29.601562 8.046875 -26.0625 8.046875 -21.875 C 8.046875 -17.644531 8.863281 -14.082031 10.5 -11.1875 C 12.132812 -8.289062 14.304688 -6.128906 17.015625 -4.703125 C 19.722656 -3.285156 22.660156 -2.578125 25.828125 -2.578125 Z M 25.828125 -2.578125 "/></g></g></g><g fill="#ffffff" fill-opacity="1"><g transform="translate(192.000432, 155.214775)"><g><path d="M 26.296875 -44.5625 C 31.503906 -44.5625 35.742188 -42.960938 39.015625 -39.765625 C 42.285156 -36.578125 43.921875 -31.847656 43.921875 -25.578125 L 43.921875 0 L 40.375 0 L 40.375 -25.34375 C 40.375 -30.539062 39.0625 -34.519531 36.4375 -37.28125 C 33.8125 -40.039062 30.242188 -41.421875 25.734375 -41.421875 C 21.015625 -41.421875 17.25 -39.921875 14.4375 -36.921875 C 11.625 -33.921875 10.21875 -29.46875 10.21875 -23.5625 L 10.21875 0 L 6.59375 0 L 6.59375 -43.671875 L 10.21875 -43.671875 L 10.21875 -34.421875 C 11.445312 -37.691406 13.492188 -40.195312 16.359375 -41.9375 C 19.234375 -43.6875 22.546875 -44.5625 26.296875 -44.5625 Z M 26.296875 -44.5625 "/></g></g></g><g fill="#ffffff" fill-opacity="1"><g transform="translate(232.918945, 155.214775)"><g><path d="M 21.15625 0.640625 C 16.269531 0.640625 12.285156 -0.429688 9.203125 -2.578125 C 6.117188 -4.722656 4.390625 -7.78125 4.015625 -11.75 L 7.71875 -11.75 C 7.988281 -8.90625 9.289062 -6.648438 11.625 -4.984375 C 13.957031 -3.328125 17.132812 -2.5 21.15625 -2.5 C 24.476562 -2.5 27.117188 -3.34375 29.078125 -5.03125 C 31.035156 -6.71875 32.015625 -8.796875 32.015625 -11.265625 C 32.015625 -12.972656 31.488281 -14.378906 30.4375 -15.484375 C 29.394531 -16.585938 28.097656 -17.429688 26.546875 -18.015625 C 24.992188 -18.609375 22.875 -19.253906 20.1875 -19.953125 C 16.96875 -20.804688 14.363281 -21.648438 12.375 -22.484375 C 10.394531 -23.316406 8.707031 -24.5625 7.3125 -26.21875 C 5.925781 -27.882812 5.234375 -30.113281 5.234375 -32.90625 C 5.234375 -34.9375 5.847656 -36.820312 7.078125 -38.5625 C 8.304688 -40.3125 10.019531 -41.691406 12.21875 -42.703125 C 14.425781 -43.722656 16.921875 -44.234375 19.703125 -44.234375 C 24.265625 -44.234375 27.953125 -43.09375 30.765625 -40.8125 C 33.578125 -38.539062 35.09375 -35.394531 35.3125 -31.375 L 31.6875 -31.375 C 31.53125 -34.269531 30.40625 -36.628906 28.3125 -38.453125 C 26.21875 -40.273438 23.320312 -41.1875 19.625 -41.1875 C 16.519531 -41.1875 13.945312 -40.378906 11.90625 -38.765625 C 9.863281 -37.160156 8.84375 -35.207031 8.84375 -32.90625 C 8.84375 -30.863281 9.421875 -29.210938 10.578125 -27.953125 C 11.734375 -26.691406 13.15625 -25.722656 14.84375 -25.046875 C 16.53125 -24.378906 18.769531 -23.671875 21.5625 -22.921875 C 24.613281 -22.117188 27.0625 -21.328125 28.90625 -20.546875 C 30.757812 -19.773438 32.328125 -18.648438 33.609375 -17.171875 C 34.898438 -15.703125 35.546875 -13.734375 35.546875 -11.265625 C 35.546875 -9.015625 34.929688 -6.972656 33.703125 -5.140625 C 32.472656 -3.316406 30.753906 -1.894531 28.546875 -0.875 C 26.347656 0.132812 23.882812 0.640625 21.15625 0.640625 Z M 21.15625 0.640625 "/></g></g></g></g></g></svg>