<svg xmlns="http://www.w3.org/2000/svg" xmlns:xlink="http://www.w3.org/1999/xlink" width="500" zoomAndPan="magnify" viewBox="0 0 375 374.999991" height="500" preserveAspectRatio="xMidYMid meet" version="1.0"><defs><g/><clipPath id="a6f23ee7b3"><rect x="0" width="351" y="0" height="70"/></clipPath></defs><rect x="-37.5" width="450" fill="#ffffff" y="-37.499999" height="449.999989" fill-opacity="1"/><rect x="-37.5" width="450" fill="#ffffff" y="-37.499999" height="449.999989" fill-opacity="1"/><g transform="matrix(1, 0, 0, 1, 11, 152)"><g clip-path="url(#a6f23ee7b3)"><g fill="#ffffff" fill-opacity="1"><g transform="translate(0.743203, 51.828702)"><g><path d="M 16.96875 -27.140625 C 18.976562 -27.140625 20.796875 -26.707031 22.421875 -25.84375 C 24.046875 -24.988281 25.316406 -23.703125 26.234375 -21.984375 C 27.160156 -20.265625 27.625 -18.175781 27.625 -15.71875 L 27.625 0 L 23.25 0 L 23.25 -15.078125 C 23.25 -17.734375 22.582031 -19.765625 21.25 -21.171875 C 19.925781 -22.585938 18.113281 -23.296875 15.8125 -23.296875 C 13.476562 -23.296875 11.617188 -22.566406 10.234375 -21.109375 C 8.859375 -19.648438 8.171875 -17.523438 8.171875 -14.734375 L 8.171875 0 L 3.75 0 L 3.75 -36 L 8.171875 -36 L 8.171875 -22.859375 C 9.046875 -24.222656 10.253906 -25.273438 11.796875 -26.015625 C 13.335938 -26.765625 15.0625 -27.140625 16.96875 -27.140625 Z M 16.96875 -27.140625 "/></g></g></g><g fill="#ffffff" fill-opacity="1"><g transform="translate(26.315876, 51.828702)"><g><path d="M 6.03125 -30.984375 C 5.1875 -30.984375 4.472656 -31.273438 3.890625 -31.859375 C 3.304688 -32.441406 3.015625 -33.15625 3.015625 -34 C 3.015625 -34.84375 3.304688 -35.554688 3.890625 -36.140625 C 4.472656 -36.722656 5.1875 -37.015625 6.03125 -37.015625 C 6.84375 -37.015625 7.53125 -36.722656 8.09375 -36.140625 C 8.664062 -35.554688 8.953125 -34.84375 8.953125 -34 C 8.953125 -33.15625 8.664062 -32.441406 8.09375 -31.859375 C 7.53125 -31.273438 6.84375 -30.984375 6.03125 -30.984375 Z M 8.171875 -26.65625 L 8.171875 0 L 3.75 0 L 3.75 -26.65625 Z M 8.171875 -26.65625 "/></g></g></g><g fill="#ffffff" fill-opacity="1"><g transform="translate(32.731468, 51.828702)"><g><path d="M 35.796875 -27.140625 C 37.867188 -27.140625 39.71875 -26.707031 41.34375 -25.84375 C 42.96875 -24.988281 44.25 -23.703125 45.1875 -21.984375 C 46.125 -20.265625 46.59375 -18.175781 46.59375 -15.71875 L 46.59375 0 L 42.21875 0 L 42.21875 -15.078125 C 42.21875 -17.734375 41.5625 -19.765625 40.25 -21.171875 C 38.9375 -22.585938 37.160156 -23.296875 34.921875 -23.296875 C 32.617188 -23.296875 30.785156 -22.554688 29.421875 -21.078125 C 28.066406 -19.609375 27.390625 -17.476562 27.390625 -14.6875 L 27.390625 0 L 23 0 L 23 -15.078125 C 23 -17.734375 22.34375 -19.765625 21.03125 -21.171875 C 19.71875 -22.585938 17.945312 -23.296875 15.71875 -23.296875 C 13.40625 -23.296875 11.566406 -22.554688 10.203125 -21.078125 C 8.847656 -19.609375 8.171875 -17.476562 8.171875 -14.6875 L 8.171875 0 L 3.75 0 L 3.75 -26.65625 L 8.171875 -26.65625 L 8.171875 -22.8125 C 9.046875 -24.207031 10.21875 -25.273438 11.6875 -26.015625 C 13.164062 -26.765625 14.800781 -27.140625 16.59375 -27.140625 C 18.820312 -27.140625 20.796875 -26.632812 22.515625 -25.625 C 24.234375 -24.625 25.515625 -23.148438 26.359375 -21.203125 C 27.109375 -23.085938 28.34375 -24.546875 30.0625 -25.578125 C 31.78125 -26.617188 33.691406 -27.140625 35.796875 -27.140625 Z M 35.796875 -27.140625 "/></g></g></g><g fill="#ffffff" fill-opacity="1"><g transform="translate(77.266736, 51.828702)"><g><path d="M 2.09375 -13.421875 C 2.09375 -16.148438 2.644531 -18.539062 3.75 -20.59375 C 4.851562 -22.65625 6.367188 -24.253906 8.296875 -25.390625 C 10.222656 -26.523438 12.367188 -27.09375 14.734375 -27.09375 C 17.066406 -27.09375 19.09375 -26.585938 20.8125 -25.578125 C 22.53125 -24.578125 23.8125 -23.316406 24.65625 -21.796875 L 24.65625 -26.65625 L 29.140625 -26.65625 L 29.140625 0 L 24.65625 0 L 24.65625 -4.96875 C 23.78125 -3.40625 22.472656 -2.113281 20.734375 -1.09375 C 19.003906 -0.0703125 16.988281 0.4375 14.6875 0.4375 C 12.320312 0.4375 10.179688 -0.144531 8.265625 -1.3125 C 6.359375 -2.476562 4.851562 -4.113281 3.75 -6.21875 C 2.644531 -8.332031 2.09375 -10.734375 2.09375 -13.421875 Z M 24.65625 -13.375 C 24.65625 -15.382812 24.25 -17.132812 23.4375 -18.625 C 22.632812 -20.113281 21.539062 -21.253906 20.15625 -22.046875 C 18.78125 -22.847656 17.265625 -23.25 15.609375 -23.25 C 13.960938 -23.25 12.457031 -22.859375 11.09375 -22.078125 C 9.726562 -21.304688 8.640625 -20.171875 7.828125 -18.671875 C 7.015625 -17.179688 6.609375 -15.429688 6.609375 -13.421875 C 6.609375 -11.378906 7.015625 -9.601562 7.828125 -8.09375 C 8.640625 -6.59375 9.726562 -5.441406 11.09375 -4.640625 C 12.457031 -3.847656 13.960938 -3.453125 15.609375 -3.453125 C 17.265625 -3.453125 18.78125 -3.847656 20.15625 -4.640625 C 21.539062 -5.441406 22.632812 -6.59375 23.4375 -8.09375 C 24.25 -9.601562 24.65625 -11.363281 24.65625 -13.375 Z M 24.65625 -13.375 "/></g></g></g><g fill="#ffffff" fill-opacity="1"><g transform="translate(104.589799, 51.828702)"><g><path d="M 26.703125 -26.65625 L 10.65625 12.546875 L 6.078125 12.546875 L 11.328125 -0.296875 L 0.578125 -26.65625 L 5.5 -26.65625 L 13.859375 -5.0625 L 22.125 -26.65625 Z M 26.703125 -26.65625 "/></g></g></g><g fill="#ffffff" fill-opacity="1"><g transform="translate(126.418584, 51.828702)"><g><path d="M 2.09375 -13.421875 C 2.09375 -16.148438 2.644531 -18.539062 3.75 -20.59375 C 4.851562 -22.65625 6.367188 -24.253906 8.296875 -25.390625 C 10.222656 -26.523438 12.367188 -27.09375 14.734375 -27.09375 C 17.066406 -27.09375 19.09375 -26.585938 20.8125 -25.578125 C 22.53125 -24.578125 23.8125 -23.316406 24.65625 -21.796875 L 24.65625 -26.65625 L 29.140625 -26.65625 L 29.140625 0 L 24.65625 0 L 24.65625 -4.96875 C 23.78125 -3.40625 22.472656 -2.113281 20.734375 -1.09375 C 19.003906 -0.0703125 16.988281 0.4375 14.6875 0.4375 C 12.320312 0.4375 10.179688 -0.144531 8.265625 -1.3125 C 6.359375 -2.476562 4.851562 -4.113281 3.75 -6.21875 C 2.644531 -8.332031 2.09375 -10.734375 2.09375 -13.421875 Z M 24.65625 -13.375 C 24.65625 -15.382812 24.25 -17.132812 23.4375 -18.625 C 22.632812 -20.113281 21.539062 -21.253906 20.15625 -22.046875 C 18.78125 -22.847656 17.265625 -23.25 15.609375 -23.25 C 13.960938 -23.25 12.457031 -22.859375 11.09375 -22.078125 C 9.726562 -21.304688 8.640625 -20.171875 7.828125 -18.671875 C 7.015625 -17.179688 6.609375 -15.429688 6.609375 -13.421875 C 6.609375 -11.378906 7.015625 -9.601562 7.828125 -8.09375 C 8.640625 -6.59375 9.726562 -5.441406 11.09375 -4.640625 C 12.457031 -3.847656 13.960938 -3.453125 15.609375 -3.453125 C 17.265625 -3.453125 18.78125 -3.847656 20.15625 -4.640625 C 21.539062 -5.441406 22.632812 -6.59375 23.4375 -8.09375 C 24.25 -9.601562 24.65625 -11.363281 24.65625 -13.375 Z M 24.65625 -13.375 "/></g></g></g><g fill="#ffffff" fill-opacity="1"><g transform="translate(153.741647, 51.828702)"><g><path d="M 16.96875 -27.140625 C 18.976562 -27.140625 20.796875 -26.707031 22.421875 -25.84375 C 24.046875 -24.988281 25.316406 -23.703125 26.234375 -21.984375 C 27.160156 -20.265625 27.625 -18.175781 27.625 -15.71875 L 27.625 0 L 23.25 0 L 23.25 -15.078125 C 23.25 -17.734375 22.582031 -19.765625 21.25 -21.171875 C 19.925781 -22.585938 18.113281 -23.296875 15.8125 -23.296875 C 13.476562 -23.296875 11.617188 -22.566406 10.234375 -21.109375 C 8.859375 -19.648438 8.171875 -17.523438 8.171875 -14.734375 L 8.171875 0 L 3.75 0 L 3.75 -36 L 8.171875 -36 L 8.171875 -22.859375 C 9.046875 -24.222656 10.253906 -25.273438 11.796875 -26.015625 C 13.335938 -26.765625 15.0625 -27.140625 16.96875 -27.140625 Z M 16.96875 -27.140625 "/></g></g></g><g fill="#ffffff" fill-opacity="1"><g transform="translate(179.31432, 51.828702)"><g/></g></g><g fill="#ffffff" fill-opacity="1"><g transform="translate(186.774737, 51.828702)"><g><path d="M 12.796875 0.390625 C 9.835938 0.390625 7.425781 -0.253906 5.5625 -1.546875 C 3.695312 -2.847656 2.65625 -4.695312 2.4375 -7.09375 L 4.671875 -7.09375 C 4.828125 -5.382812 5.609375 -4.023438 7.015625 -3.015625 C 8.429688 -2.015625 10.359375 -1.515625 12.796875 -1.515625 C 14.804688 -1.515625 16.398438 -2.023438 17.578125 -3.046875 C 18.765625 -4.066406 19.359375 -5.320312 19.359375 -6.8125 C 19.359375 -7.84375 19.039062 -8.691406 18.40625 -9.359375 C 17.78125 -10.023438 16.992188 -10.535156 16.046875 -10.890625 C 15.109375 -11.253906 13.828125 -11.644531 12.203125 -12.0625 C 10.265625 -12.582031 8.691406 -13.09375 7.484375 -13.59375 C 6.285156 -14.09375 5.265625 -14.84375 4.421875 -15.84375 C 3.578125 -16.851562 3.15625 -18.203125 3.15625 -19.890625 C 3.15625 -21.128906 3.53125 -22.273438 4.28125 -23.328125 C 5.03125 -24.378906 6.066406 -25.210938 7.390625 -25.828125 C 8.722656 -26.441406 10.234375 -26.75 11.921875 -26.75 C 14.671875 -26.75 16.894531 -26.0625 18.59375 -24.6875 C 20.300781 -23.3125 21.222656 -21.40625 21.359375 -18.96875 L 19.171875 -18.96875 C 19.066406 -20.71875 18.378906 -22.144531 17.109375 -23.25 C 15.847656 -24.351562 14.101562 -24.90625 11.875 -24.90625 C 9.988281 -24.90625 8.425781 -24.414062 7.1875 -23.4375 C 5.957031 -22.46875 5.34375 -21.285156 5.34375 -19.890625 C 5.34375 -18.660156 5.691406 -17.664062 6.390625 -16.90625 C 7.085938 -16.144531 7.945312 -15.5625 8.96875 -15.15625 C 9.988281 -14.75 11.34375 -14.316406 13.03125 -13.859375 C 14.882812 -13.378906 16.367188 -12.898438 17.484375 -12.421875 C 18.609375 -11.953125 19.554688 -11.269531 20.328125 -10.375 C 21.109375 -9.488281 21.5 -8.300781 21.5 -6.8125 C 21.5 -5.445312 21.125 -4.210938 20.375 -3.109375 C 19.632812 -2.003906 18.597656 -1.144531 17.265625 -0.53125 C 15.929688 0.0820312 14.441406 0.390625 12.796875 0.390625 Z M 12.796875 0.390625 "/></g></g></g><g fill="#ffffff" fill-opacity="1"><g transform="translate(205.394468, 51.828702)"><g><path d="M 15.609375 0.390625 C 13.148438 0.390625 10.929688 -0.160156 8.953125 -1.265625 C 6.972656 -2.367188 5.421875 -3.945312 4.296875 -6 C 3.179688 -8.0625 2.625 -10.472656 2.625 -13.234375 C 2.625 -15.953125 3.191406 -18.34375 4.328125 -20.40625 C 5.460938 -22.46875 7.023438 -24.039062 9.015625 -25.125 C 11.015625 -26.207031 13.25 -26.75 15.71875 -26.75 C 18.175781 -26.75 20.394531 -26.207031 22.375 -25.125 C 24.351562 -24.039062 25.898438 -22.472656 27.015625 -20.421875 C 28.140625 -18.378906 28.703125 -15.984375 28.703125 -13.234375 C 28.703125 -10.472656 28.132812 -8.0625 27 -6 C 25.863281 -3.945312 24.296875 -2.367188 22.296875 -1.265625 C 20.304688 -0.160156 18.078125 0.390625 15.609375 0.390625 Z M 15.609375 -1.5625 C 17.523438 -1.5625 19.316406 -1.988281 20.984375 -2.84375 C 22.660156 -3.707031 24 -5.015625 25 -6.765625 C 26.007812 -8.515625 26.515625 -10.671875 26.515625 -13.234375 C 26.515625 -15.765625 26.007812 -17.90625 25 -19.65625 C 24 -21.40625 22.671875 -22.707031 21.015625 -23.5625 C 19.359375 -24.425781 17.570312 -24.859375 15.65625 -24.859375 C 13.75 -24.859375 11.972656 -24.425781 10.328125 -23.5625 C 8.691406 -22.707031 7.367188 -21.40625 6.359375 -19.65625 C 5.359375 -17.90625 4.859375 -15.765625 4.859375 -13.234375 C 4.859375 -10.671875 5.351562 -8.515625 6.34375 -6.765625 C 7.332031 -5.015625 8.644531 -3.707031 10.28125 -2.84375 C 11.925781 -1.988281 13.703125 -1.5625 15.609375 -1.5625 Z M 15.609375 -1.5625 "/></g></g></g><g fill="#ffffff" fill-opacity="1"><g transform="translate(231.210248, 51.828702)"><g><path d="M 6.171875 -36 L 6.171875 0 L 3.984375 0 L 3.984375 -36 Z M 6.171875 -36 "/></g></g></g><g fill="#ffffff" fill-opacity="1"><g transform="translate(235.875449, 51.828702)"><g><path d="M 26.3125 -26.40625 L 26.3125 0 L 24.125 0 L 24.125 -5.734375 C 23.375 -3.722656 22.128906 -2.191406 20.390625 -1.140625 C 18.660156 -0.0859375 16.679688 0.4375 14.453125 0.4375 C 11.304688 0.4375 8.734375 -0.523438 6.734375 -2.453125 C 4.742188 -4.378906 3.75 -7.242188 3.75 -11.046875 L 3.75 -26.40625 L 5.890625 -26.40625 L 5.890625 -11.1875 C 5.890625 -8.039062 6.679688 -5.628906 8.265625 -3.953125 C 9.859375 -2.285156 12.015625 -1.453125 14.734375 -1.453125 C 17.585938 -1.453125 19.863281 -2.359375 21.5625 -4.171875 C 23.269531 -5.992188 24.125 -8.6875 24.125 -12.25 L 24.125 -26.40625 Z M 26.3125 -26.40625 "/></g></g></g><g fill="#ffffff" fill-opacity="1"><g transform="translate(260.621536, 51.828702)"><g><path d="M 7.25 -24.515625 L 7.25 -7.046875 C 7.25 -5.109375 7.601562 -3.773438 8.3125 -3.046875 C 9.03125 -2.316406 10.296875 -1.953125 12.109375 -1.953125 L 15.078125 -1.953125 L 15.078125 0 L 11.765625 0 C 9.460938 0 7.769531 -0.539062 6.6875 -1.625 C 5.601562 -2.71875 5.0625 -4.523438 5.0625 -7.046875 L 5.0625 -24.515625 L 1.0625 -24.515625 L 1.0625 -26.40625 L 5.0625 -26.40625 L 5.0625 -33.125 L 7.25 -33.125 L 7.25 -26.40625 L 15.078125 -26.40625 L 15.078125 -24.515625 Z M 7.25 -24.515625 "/></g></g></g><g fill="#ffffff" fill-opacity="1"><g transform="translate(271.947952, 51.828702)"><g><path d="M 5.109375 -32.296875 C 4.585938 -32.296875 4.148438 -32.460938 3.796875 -32.796875 C 3.441406 -33.140625 3.265625 -33.601562 3.265625 -34.1875 C 3.265625 -34.738281 3.441406 -35.191406 3.796875 -35.546875 C 4.148438 -35.910156 4.585938 -36.09375 5.109375 -36.09375 C 5.628906 -36.09375 6.066406 -35.910156 6.421875 -35.546875 C 6.773438 -35.191406 6.953125 -34.738281 6.953125 -34.1875 C 6.953125 -33.601562 6.773438 -33.140625 6.421875 -32.796875 C 6.066406 -32.460938 5.628906 -32.296875 5.109375 -32.296875 Z M 6.171875 -26.40625 L 6.171875 0 L 3.984375 0 L 3.984375 -26.40625 Z M 6.171875 -26.40625 "/></g></g></g><g fill="#ffffff" fill-opacity="1"><g transform="translate(276.613153, 51.828702)"><g><path d="M 15.609375 0.390625 C 13.148438 0.390625 10.929688 -0.160156 8.953125 -1.265625 C 6.972656 -2.367188 5.421875 -3.945312 4.296875 -6 C 3.179688 -8.0625 2.625 -10.472656 2.625 -13.234375 C 2.625 -15.953125 3.191406 -18.34375 4.328125 -20.40625 C 5.460938 -22.46875 7.023438 -24.039062 9.015625 -25.125 C 11.015625 -26.207031 13.25 -26.75 15.71875 -26.75 C 18.175781 -26.75 20.394531 -26.207031 22.375 -25.125 C 24.351562 -24.039062 25.898438 -22.472656 27.015625 -20.421875 C 28.140625 -18.378906 28.703125 -15.984375 28.703125 -13.234375 C 28.703125 -10.472656 28.132812 -8.0625 27 -6 C 25.863281 -3.945312 24.296875 -2.367188 22.296875 -1.265625 C 20.304688 -0.160156 18.078125 0.390625 15.609375 0.390625 Z M 15.609375 -1.5625 C 17.523438 -1.5625 19.316406 -1.988281 20.984375 -2.84375 C 22.660156 -3.707031 24 -5.015625 25 -6.765625 C 26.007812 -8.515625 26.515625 -10.671875 26.515625 -13.234375 C 26.515625 -15.765625 26.007812 -17.90625 25 -19.65625 C 24 -21.40625 22.671875 -22.707031 21.015625 -23.5625 C 19.359375 -24.425781 17.570312 -24.859375 15.65625 -24.859375 C 13.75 -24.859375 11.972656 -24.425781 10.328125 -23.5625 C 8.691406 -22.707031 7.367188 -21.40625 6.359375 -19.65625 C 5.359375 -17.90625 4.859375 -15.765625 4.859375 -13.234375 C 4.859375 -10.671875 5.351562 -8.515625 6.34375 -6.765625 C 7.332031 -5.015625 8.644531 -3.707031 10.28125 -2.84375 C 11.925781 -1.988281 13.703125 -1.5625 15.609375 -1.5625 Z M 15.609375 -1.5625 "/></g></g></g><g fill="#ffffff" fill-opacity="1"><g transform="translate(302.428933, 51.828702)"><g><path d="M 15.90625 -26.953125 C 19.050781 -26.953125 21.613281 -25.984375 23.59375 -24.046875 C 25.570312 -22.117188 26.5625 -19.257812 26.5625 -15.46875 L 26.5625 0 L 24.421875 0 L 24.421875 -15.328125 C 24.421875 -18.472656 23.625 -20.878906 22.03125 -22.546875 C 20.445312 -24.210938 18.289062 -25.046875 15.5625 -25.046875 C 12.707031 -25.046875 10.425781 -24.140625 8.71875 -22.328125 C 7.019531 -20.515625 6.171875 -17.820312 6.171875 -14.25 L 6.171875 0 L 3.984375 0 L 3.984375 -26.40625 L 6.171875 -26.40625 L 6.171875 -20.8125 C 6.921875 -22.789062 8.160156 -24.304688 9.890625 -25.359375 C 11.628906 -26.421875 13.632812 -26.953125 15.90625 -26.953125 Z M 15.90625 -26.953125 "/></g></g></g><g fill="#ffffff" fill-opacity="1"><g transform="translate(327.175019, 51.828702)"><g><path d="M 12.796875 0.390625 C 9.835938 0.390625 7.425781 -0.253906 5.5625 -1.546875 C 3.695312 -2.847656 2.65625 -4.695312 2.4375 -7.09375 L 4.671875 -7.09375 C 4.828125 -5.382812 5.609375 -4.023438 7.015625 -3.015625 C 8.429688 -2.015625 10.359375 -1.515625 12.796875 -1.515625 C 14.804688 -1.515625 16.398438 -2.023438 17.578125 -3.046875 C 18.765625 -4.066406 19.359375 -5.320312 19.359375 -6.8125 C 19.359375 -7.84375 19.039062 -8.691406 18.40625 -9.359375 C 17.78125 -10.023438 16.992188 -10.535156 16.046875 -10.890625 C 15.109375 -11.253906 13.828125 -11.644531 12.203125 -12.0625 C 10.265625 -12.582031 8.691406 -13.09375 7.484375 -13.59375 C 6.285156 -14.09375 5.265625 -14.84375 4.421875 -15.84375 C 3.578125 -16.851562 3.15625 -18.203125 3.15625 -19.890625 C 3.15625 -21.128906 3.53125 -22.273438 4.28125 -23.328125 C 5.03125 -24.378906 6.066406 -25.210938 7.390625 -25.828125 C 8.722656 -26.441406 10.234375 -26.75 11.921875 -26.75 C 14.671875 -26.75 16.894531 -26.0625 18.59375 -24.6875 C 20.300781 -23.3125 21.222656 -21.40625 21.359375 -18.96875 L 19.171875 -18.96875 C 19.066406 -20.71875 18.378906 -22.144531 17.109375 -23.25 C 15.847656 -24.351562 14.101562 -24.90625 11.875 -24.90625 C 9.988281 -24.90625 8.425781 -24.414062 7.1875 -23.4375 C 5.957031 -22.46875 5.34375 -21.285156 5.34375 -19.890625 C 5.34375 -18.660156 5.691406 -17.664062 6.390625 -16.90625 C 7.085938 -16.144531 7.945312 -15.5625 8.96875 -15.15625 C 9.988281 -14.75 11.34375 -14.316406 13.03125 -13.859375 C 14.882812 -13.378906 16.367188 -12.898438 17.484375 -12.421875 C 18.609375 -11.953125 19.554688 -11.269531 20.328125 -10.375 C 21.109375 -9.488281 21.5 -8.300781 21.5 -6.8125 C 21.5 -5.445312 21.125 -4.210938 20.375 -3.109375 C 19.632812 -2.003906 18.597656 -1.144531 17.265625 -0.53125 C 15.929688 0.0820312 14.441406 0.390625 12.796875 0.390625 Z M 12.796875 0.390625 "/></g></g></g></g></g></svg>